<svg width="18" height="18" viewBox="0 0 18 18" fill="none" xmlns="http://www.w3.org/2000/svg">
<path d="M0.998413 7.75012H15.9984Z" fill="#2C2C2C"/>
<path d="M0.998413 7.75012L0.999264 14.5002C0.999333 15.0525 1.44703 15.5001 1.99926 15.5001H14.9993C15.5516 15.5001 15.9993 15.0523 15.9993 14.5L15.9984 7.75012H0.998413Z" fill="#2C2C2C"/>
<path d="M1.99918 3.00014C1.44698 3.00014 0.999298 3.44774 0.999184 3.99994L0.998413 7.75012H15.9984V5.75012C15.9984 5.19783 15.5507 4.75012 14.9984 4.75012H8.8037C8.31183 4.75012 7.83721 4.56886 7.47056 4.241L6.65225 3.50926C6.28559 3.1814 5.81097 3.00014 5.3191 3.00014H1.99918Z" fill="#2C2C2C"/>
<path d="M0.998413 7.75012L0.999184 3.99994C0.999298 3.44774 1.44698 3.00014 1.99918 3.00014H5.3191C5.81097 3.00014 6.28559 3.1814 6.65225 3.50926L7.47056 4.241C7.83721 4.56886 8.31183 4.75012 8.8037 4.75012H14.9984C15.5507 4.75012 15.9984 5.19783 15.9984 5.75012V7.75012M0.998413 7.75012L0.999264 14.5002C0.999333 15.0525 1.44703 15.5001 1.99926 15.5001H14.9993C15.5516 15.5001 15.9993 15.0523 15.9993 14.5L15.9984 7.75012M0.998413 7.75012H15.9984" stroke="#5E5E5E" stroke-width="1.1"/>
</svg>
