<svg width="18" height="18" viewBox="0 0 18 18" fill="none" xmlns="http://www.w3.org/2000/svg">
<path d="M2.49963 4.9375H15.4996ZM7.37463 8.1875V13.0625ZM10.6246 8.1875V13.0625ZM3.31213 4.9375L4.12463 14.6875C4.12463 15.1185 4.29584 15.5318 4.60059 15.8365C4.90533 16.1413 5.31866 16.3125 5.74963 16.3125H12.2496C12.6806 16.3125 13.0939 16.1413 13.3987 15.8365C13.7034 15.5318 13.8746 15.1185 13.8746 14.6875L14.6871 4.9375M6.56213 4.9375V2.5C6.56213 2.28451 6.64774 2.07785 6.80011 1.92548C6.95248 1.7731 7.15915 1.6875 7.37463 1.6875H10.6246C10.8401 1.6875 11.0468 1.7731 11.1992 1.92548C11.3515 2.07785 11.4371 2.28451 11.4371 2.5V4.9375" fill="#2C2C2C"/>
<path d="M2.49963 4.9375H15.4996M7.37463 8.1875V13.0625M10.6246 8.1875V13.0625M3.31213 4.9375L4.12463 14.6875C4.12463 15.1185 4.29584 15.5318 4.60059 15.8365C4.90533 16.1413 5.31866 16.3125 5.74963 16.3125H12.2496C12.6806 16.3125 13.0939 16.1413 13.3987 15.8365C13.7034 15.5318 13.8746 15.1185 13.8746 14.6875L14.6871 4.9375M6.56213 4.9375V2.5C6.56213 2.28451 6.64774 2.07785 6.80011 1.92548C6.95248 1.7731 7.15915 1.6875 7.37463 1.6875H10.6246C10.8401 1.6875 11.0468 1.7731 11.1992 1.92548C11.3515 2.07785 11.4371 2.28451 11.4371 2.5V4.9375" stroke="#5E5E5E" stroke-width="1.19167" stroke-linecap="round"/>
</svg>
