<svg width="18" height="18" viewBox="0 0 18 18" fill="none" xmlns="http://www.w3.org/2000/svg">
<g clip-path="url(#clip0_200_30)">
<path d="M0.998413 7.75012H15.9984Z" fill="#2C2C2C"/>
<path d="M1.99918 3.00014C1.44698 3.00014 0.999298 3.44774 0.999184 3.99994L0.998413 7.75012H15.9984V5.75012C15.9984 5.19783 15.5507 4.75012 14.9984 4.75012H8.8037C8.31183 4.75012 7.83721 4.56886 7.47056 4.241L6.65225 3.50926C6.28559 3.1814 5.81097 3.00014 5.3191 3.00014H1.99918Z" fill="#2C2C2C"/>
<path d="M0.998413 7.75012L0.999264 14.5002C0.999333 15.0525 1.44703 15.5001 1.99926 15.5001H13.7201V12.8641C13.7201 12.0127 14.1483 11.2184 14.8595 10.7503C15.571 10.2821 15.9992 9.48728 15.9988 8.63552L15.9984 7.75012H0.998413Z" fill="#2C2C2C"/>
<path d="M13.7201 15.5001H1.99926C1.44703 15.5001 0.999333 15.0525 0.999264 14.5002L0.998413 7.75012L0.999184 3.99994C0.999298 3.44774 1.44698 3.00014 1.99918 3.00014H5.3191C5.81097 3.00014 6.28559 3.1814 6.65225 3.50926L7.47056 4.241C7.83721 4.56886 8.31183 4.75012 8.8037 4.75012H14.9984C15.5507 4.75012 15.9984 5.19783 15.9984 5.75012V7.75012L15.9994 10.0001" stroke="#5E5E5E" stroke-width="1.1"/>
<path d="M13.3561 6.61543C14.0736 6.31785 14.8694 6.26599 15.6198 6.467C16.3703 6.66805 17.0337 7.11109 17.5065 7.72774C17.9791 8.34436 18.2347 9.10021 18.234 9.87715V9.87813C18.2317 10.635 17.9856 11.371 17.5319 11.9768C17.1602 12.473 16.6639 12.8568 16.0983 13.0988L16.0992 13.2932C16.0996 13.4756 16.0642 13.6567 15.9948 13.8254C15.9253 13.9941 15.8227 14.1473 15.694 14.2766C15.6184 14.3524 15.5335 14.4175 15.443 14.4738C15.488 14.5011 15.5319 14.5304 15.5739 14.5627L15.6764 14.6496L15.6852 14.6574L15.694 14.6662C15.9505 14.9283 16.0934 15.281 16.0934 15.6477C16.0933 16.0142 15.9503 16.3662 15.694 16.6281L15.6823 16.6398C15.4208 16.8911 15.0731 17.0325 14.7106 17.0363L14.7028 17.0373V17.0363C14.428 17.0352 14.1591 16.9527 13.9313 16.799C13.7037 16.6455 13.5266 16.4281 13.4225 16.174C13.3184 15.9197 13.2916 15.6396 13.3463 15.3703C13.4011 15.1011 13.535 14.8538 13.7301 14.6604L13.736 14.6545L13.7418 14.6496C13.8135 14.5828 13.8916 14.5239 13.9742 14.4738C13.8858 14.4187 13.8021 14.3543 13.7272 14.2795C13.4668 14.0196 13.3207 13.6669 13.3199 13.299V12.927L13.318 12.9172V11.9855L13.3209 11.9572C13.3283 11.8884 13.3415 11.8201 13.359 11.7531C13.3698 11.6741 13.3855 11.5958 13.4098 11.5197L13.4254 11.4689L13.4518 11.423C13.4835 11.3658 13.5197 11.3112 13.5592 11.259C13.5985 11.1917 13.6419 11.1265 13.692 11.0666L13.7233 11.0305L13.7594 10.9992C13.8157 10.9524 13.8762 10.9107 13.9391 10.8732C13.995 10.8304 14.0541 10.7919 14.1158 10.758L14.1627 10.7316L14.2145 10.716C14.2504 10.7049 14.2872 10.6959 14.3239 10.6877L14.3766 10.5578L14.1051 10.2346L13.8854 9.97383L13.2115 10.1506L13.2106 10.1496C12.8558 10.2436 12.4788 10.1944 12.1608 10.0109C11.8415 9.82671 11.6078 9.52321 11.5123 9.16719C11.417 8.8113 11.4669 8.43163 11.651 8.1125H11.652C12.0398 7.43969 12.6388 6.91304 13.3561 6.61543Z" fill="#5E5E5E" stroke="#141414" stroke-width="1.06902"/>
<path d="M13.9606 12.8684L13.9596 12.8586V12.0197C13.9645 11.9771 13.9729 11.935 13.985 11.8938L13.9879 11.883L13.9889 11.8732C13.9935 11.8226 14.0034 11.7725 14.0182 11.7238C14.0378 11.6896 14.0598 11.6569 14.0846 11.6262L14.0914 11.6184L14.0963 11.6086C14.119 11.5657 14.1458 11.5252 14.1764 11.4875C14.2123 11.4582 14.2509 11.4325 14.2916 11.4104L14.3004 11.4055L14.3082 11.3986C14.3415 11.3712 14.3772 11.3467 14.4147 11.3254C14.4596 11.3121 14.5057 11.3027 14.5524 11.298L14.5631 11.2971L14.5739 11.2941C14.6188 11.2803 14.6648 11.2701 14.7115 11.2648C15.0785 11.2637 15.4305 11.1181 15.6901 10.8586C15.9505 10.5981 16.0963 10.2445 16.0963 9.87617C16.0963 9.5078 15.9505 9.15427 15.6901 8.89375C15.4296 8.63329 15.076 8.48663 14.7076 8.48653C14.4636 8.48637 14.2237 8.55112 14.0123 8.67305C13.801 8.795 13.6256 8.9705 13.5035 9.18184C13.4043 9.35376 13.2402 9.47905 13.0485 9.53047C12.857 9.58173 12.6528 9.55524 12.4811 9.45625C12.3092 9.35705 12.1839 9.19289 12.1324 9.00117C12.0811 8.80959 12.1076 8.60562 12.2067 8.43379C12.5239 7.88298 13.0141 7.45184 13.6012 7.20821C14.1883 6.96461 14.8397 6.92169 15.4537 7.08614C16.0678 7.25062 16.6109 7.61386 16.9977 8.11836C17.3842 8.62277 17.593 9.2407 17.5924 9.87617L17.5826 10.1066C17.5379 10.6434 17.343 11.1584 17.0182 11.592C16.6471 12.0874 16.1263 12.4504 15.5328 12.6262L15.4557 12.6486V12.7287L15.4576 13.2951C15.4578 13.3932 15.4393 13.4906 15.402 13.5813C15.3646 13.6721 15.3092 13.7548 15.2399 13.8244C15.1706 13.8939 15.0882 13.9488 14.9977 13.9865C14.9071 14.0243 14.8097 14.0439 14.7115 14.0441H14.7086C14.5106 14.0441 14.3205 13.9653 14.1803 13.8254C14.0403 13.6855 13.9611 13.4959 13.9606 13.298V12.8684Z" fill="#5E5E5E" stroke="#141414" stroke-width="0.213805"/>
<path d="M13.8713 15.4772C13.9049 15.3115 13.987 15.1595 14.107 15.0404C14.2707 14.8879 14.4861 14.8031 14.7098 14.8031C14.9335 14.8031 15.1489 14.8879 15.3125 15.0404C15.4713 15.2026 15.5602 15.4205 15.5602 15.6474C15.5602 15.8744 15.4713 16.0923 15.3125 16.2545C15.1492 16.4114 14.932 16.5001 14.7055 16.5024C14.5364 16.5017 14.3713 16.4509 14.2311 16.3563C14.0909 16.2618 13.9819 16.1278 13.9179 15.9714C13.8538 15.8149 13.8376 15.6429 13.8713 15.4772Z" fill="#5E5E5E"/>
</g>
<defs>
<clipPath id="clip0_200_30">
<rect width="18" height="18" fill="white"/>
</clipPath>
</defs>
</svg>
