<svg width="11" height="11" viewBox="0 0 11 11" fill="none" xmlns="http://www.w3.org/2000/svg">
<path fill-rule="evenodd" clip-rule="evenodd" d="M1.57143 6.75C1.57143 6.67965 1.55757 6.60999 1.53065 6.54499C1.50373 6.47999 1.46427 6.42094 1.41452 6.37119C1.36478 6.32145 1.30572 6.28199 1.24072 6.25506C1.17573 6.22814 1.10607 6.21429 1.03571 6.21429C0.965363 6.21429 0.895701 6.22814 0.830705 6.25506C0.765709 6.28199 0.706653 6.32145 0.656907 6.37119C0.607161 6.42094 0.567701 6.47999 0.540779 6.54499C0.513857 6.60999 0.5 6.67965 0.5 6.75V9.07143C0.5 9.45031 0.65051 9.81367 0.918419 10.0816C1.18633 10.3495 1.54969 10.5 1.92857 10.5H9.07143C9.45031 10.5 9.81367 10.3495 10.0816 10.0816C10.3495 9.81367 10.5 9.45031 10.5 9.07143V6.75C10.5 6.60792 10.4436 6.47166 10.3431 6.37119C10.2426 6.27073 10.1064 6.21429 9.96429 6.21429C9.82221 6.21429 9.68594 6.27073 9.58548 6.37119C9.48501 6.47166 9.42857 6.60792 9.42857 6.75V9.07143C9.42857 9.16615 9.39094 9.25699 9.32397 9.32397C9.25699 9.39094 9.16615 9.42857 9.07143 9.42857H1.92857C1.83385 9.42857 1.74301 9.39094 1.67603 9.32397C1.60906 9.25699 1.57143 9.16615 1.57143 9.07143V6.75Z" fill="#F3F3F3"/>
<path d="M7.82146 4.11453C7.96342 4.11453 8.09958 4.05818 8.20003 3.95786C8.24981 3.90811 8.2893 3.84904 8.31625 3.78402C8.34319 3.719 8.35706 3.64931 8.35706 3.57893C8.35706 3.50855 8.34319 3.43886 8.31625 3.37384C8.2893 3.30882 8.24981 3.24975 8.20003 3.2L5.50003 0.5L2.80003 3.20071C2.7054 3.30227 2.65388 3.43659 2.65633 3.57537C2.65878 3.71416 2.715 3.84658 2.81316 3.94473C2.91131 4.04288 3.04373 4.0991 3.18251 4.10155C3.3213 4.104 3.45562 4.05249 3.55717 3.95786L4.96432 2.55071V7.82143C4.96432 7.96351 5.02076 8.09977 5.12122 8.20024C5.22169 8.3007 5.35795 8.35714 5.50003 8.35714C5.64211 8.35714 5.77837 8.3007 5.87884 8.20024C5.9793 8.09977 6.03574 7.96351 6.03574 7.82143V2.55071L7.44289 3.95786C7.54333 4.05818 7.67949 4.11453 7.82146 4.11453Z" fill="#F3F3F3"/>
</svg>
