<svg width="11" height="11" viewBox="0 0 11 11" fill="none" xmlns="http://www.w3.org/2000/svg">
<g clip-path="url(#clip0_196_8)">
<path fill-rule="evenodd" clip-rule="evenodd" d="M1.57143 6.75C1.57143 6.67965 1.55757 6.60999 1.53065 6.54499C1.50373 6.48 1.46427 6.42094 1.41452 6.37119C1.36478 6.32145 1.30572 6.28199 1.24072 6.25506C1.17573 6.22814 1.10607 6.21429 1.03571 6.21429C0.965363 6.21429 0.895701 6.22814 0.830705 6.25506C0.765709 6.28199 0.706653 6.32145 0.656907 6.37119C0.607161 6.42094 0.567701 6.48 0.540779 6.54499C0.513857 6.60999 0.5 6.67965 0.5 6.75V9.07143C0.5 9.45031 0.65051 9.81367 0.918419 10.0816C1.18633 10.3495 1.54969 10.5 1.92857 10.5H9.07143C9.45031 10.5 9.81367 10.3495 10.0816 10.0816C10.3495 9.81367 10.5 9.45031 10.5 9.07143V6.75C10.5 6.60792 10.4436 6.47166 10.3431 6.37119C10.2426 6.27073 10.1064 6.21429 9.96429 6.21429C9.82221 6.21429 9.68594 6.27073 9.58548 6.37119C9.48501 6.47166 9.42857 6.60792 9.42857 6.75V9.07143C9.42857 9.16615 9.39094 9.25699 9.32397 9.32397C9.25699 9.39094 9.16615 9.42857 9.07143 9.42857H1.92857C1.83385 9.42857 1.74301 9.39094 1.67603 9.32397C1.60906 9.25699 1.57143 9.16615 1.57143 9.07143V6.75Z" fill="#F3F3F3"/>
<path d="M7.82146 4.74261C7.96342 4.74261 8.09958 4.79896 8.20003 4.89929C8.24981 4.94904 8.2893 5.00811 8.31625 5.07313C8.34319 5.13814 8.35706 5.20783 8.35706 5.27821C8.35706 5.34859 8.34319 5.41828 8.31625 5.4833C8.2893 5.54832 8.24981 5.60739 8.20003 5.65714L5.50003 8.35714L2.80003 5.65643C2.7054 5.55488 2.65388 5.42056 2.65633 5.28177C2.65878 5.14298 2.715 5.01057 2.81316 4.91241C2.91131 4.81426 3.04373 4.75804 3.18251 4.75559C3.3213 4.75314 3.45562 4.80466 3.55717 4.89929L4.96432 6.30643V1.03571C4.96432 0.893634 5.02076 0.757373 5.12122 0.656907C5.22169 0.556441 5.35795 0.5 5.50003 0.5C5.64211 0.5 5.77837 0.556441 5.87884 0.656907C5.9793 0.757373 6.03574 0.893634 6.03574 1.03571V6.30643L7.44289 4.89929C7.54333 4.79896 7.67949 4.74261 7.82146 4.74261Z" fill="#F3F3F3"/>
</g>
<defs>
<clipPath id="clip0_196_8">
<rect width="11" height="11" fill="white"/>
</clipPath>
</defs>
</svg>
